# xmcd CD database file
#
# Track frame offsets:
#	150
#	19050
#	43370
#	62980
#	86405
#	109762
#	123717
#	139250
#	156400
#	173900
#	190162
#	211887
#	226715
#	247400
#	263507
#	282670
#
# Disc length: 4000 seconds
#
# Revision: 0
# Processed by: cddbd v1.5PL3 Copyright (c) Steve Scherf et al.
# Submitted via: CDex 1.50beta10
#
DISCID=f20f9e10
DTITLE=Various Artist - きみになりたい。
DYEAR=2004
DGENRE=Japanese Pop
TTITLE0=観月ありさ - パリの恋人 - トーキョーの恋人
TTITLE1=中谷美紀 - 逢いびきの森で
TTITLE2=吉岡忍 - あんなに愛しあっていたふたりなのに
TTITLE3=T.V.Jesus - 1983
TTITLE4=井上睦都実 - 抱きしめたい (Readymade Mix)
TTITLE5=三浦理恵子 - 日曜はダメよ
TTITLE6=宮村優子 - ママ・トールド・ミー
TTITLE7=戸川京子 - 結婚のすべて
TTITLE8=松本伊代 - 有給休暇
TTITLE9=岩本千春 - キス
TTITLE10=細川ふみえ - チェリー・ヴァニラ
TTITLE11=ガール ガール ガール - Boy Boy Boy
TTITLE12=Pizzicato Five - フォーチュン・クッキー
TTITLE13=野本かりあ - アデューは悲しい言葉
TTITLE14=市川実和子 - マジック・カーペット・ライド
TTITLE15=深田恭子 - キミノヒトミニコイシテル
EXTD=YEAR: 2004
EXTT0=
EXTT1=
EXTT2=
EXTT3=
EXTT4=
EXTT5=
EXTT6=
EXTT7=
EXTT8=
EXTT9=
EXTT10=
EXTT11=
EXTT12=
EXTT13=
EXTT14=
EXTT15=
PLAYORDER=
